<svg xmlns="http://www.w3.org/2000/svg" version="1.1" xmlns:xlink="http://www.w3.org/1999/xlink" xmlns:svgjs="http://svgjs.dev/svgjs" width="1500" height="939" viewBox="0 0 1500 939"><g transform="matrix(1,0,0,1,-0.9090909090909918,-1.5145161290323017)"><svg viewBox="0 0 396 248" data-background-color="#efbc9b" preserveAspectRatio="xMidYMid meet" height="939" width="1500" xmlns="http://www.w3.org/2000/svg" xmlns:xlink="http://www.w3.org/1999/xlink"><g id="tight-bounds" transform="matrix(1,0,0,1,0.2400000000000091,0.4000000000000057)"><svg viewBox="0 0 395.52 247.2" height="247.2" width="395.52"><g><svg></svg></g><g><svg viewBox="0 0 395.52 247.2" height="247.2" width="395.52"><mask id="9dec07e5-73b8-406f-8327-8b9260c383bc"><rect width="640" height="400" fill="white"></rect><g transform="matrix(1,0,0,1,39.55199999999999,89.51469732566858)"><svg viewBox="0 0 316.416 68.17060534866283" height="68.17060534866283" width="316.416"><g><svg viewBox="0 0 316.416 68.17060534866283" height="68.17060534866283" width="316.416"><g><svg viewBox="0 0 316.416 68.17060534866283" height="68.17060534866283" width="316.416"><g><svg viewBox="0 0 316.416 68.17060534866283" height="68.17060534866283" width="316.416"><g id="SvgjsG5346"><svg viewBox="0 0 316.416 68.17060534866283" height="68.17060534866283" width="316.416" id="SvgjsSvg5345"><g><svg viewBox="0 0 316.416 68.17060534866283" height="68.17060534866283" width="316.416"><g transform="matrix(1,0,0,1,0,0)"><svg width="316.416" viewBox="-2.75 -38.9 201.03 44.099999999999994" height="68.17060534866283" data-palette-color="#fbf3d5"><path d="M17.85-5.75L17.85-5.75Q17.85-2.9 15.58-1.03 13.3 0.85 10.15 0.85L10.15 0.85Q5.55 0.85 3.4-1.93 1.25-4.7 1.25-9.45L1.25-9.45Q1.25-14.5 3.5-18.4L3.5-18.4Q4.6-20.4 6.65-21.55 8.7-22.7 11.45-22.7L11.45-22.7Q15.6-22.7 17.3-19.9L17.3-19.9Q18-18.75 18-17.2L18-17.2Q18-14.8 16-13.6L16-13.6Q15.2-13.15 14.53-13.15 13.85-13.15 13.43-13.23 13-13.3 12.3-13.9 11.6-14.5 11.6-15.55L11.6-15.55Q11.65-16.1 12.45-16.45L12.45-16.45Q13.2-16.9 13.2-18.05L13.2-18.05Q13.2-20 10.8-20L10.8-20Q10.2-20 9.38-19.48 8.55-18.95 8-18.13 7.45-17.3 6.98-15.53 6.5-13.75 6.5-12.13 6.5-10.5 6.63-9.68 6.75-8.85 7.18-7.43 7.6-6 8.78-5.1 9.95-4.2 11.7-4.2L11.7-4.2Q13.8-4.2 15.4-5.95L15.4-5.95Q16.05-6.65 16.45-7.65L16.45-7.65Q16.65-8.05 16.95-8.05L16.95-8.05Q17.4-8.05 17.63-7.23 17.85-6.4 17.85-5.75ZM37.2-15L37.2-15 37.1-8.6Q37.1-1.95 38.55-0.6L38.55-0.6Q38.75-0.4 38.75-0.15L38.75-0.15Q38.75 0.6 35.52 0.6 32.3 0.6 32.1-1.3L32.1-1.3Q32.05-1.75 32.05-3.15L32.05-3.15 32.25-11.15Q32.25-11.5 31.85-11.5L31.85-11.5Q29.45-11.5 27.35-10.15 25.25-8.8 25.25-6.7L25.25-6.7Q25.25-5.6 25.85-4.85 26.45-4.1 27.32-4.1 28.2-4.1 28.77-4.45 29.35-4.8 29.45-4.85L29.45-4.85Q30.3-4.75 30.3-3.08 30.3-1.4 28.75-0.38 27.2 0.65 25.5 0.65 23.8 0.65 22.57 0.05 21.35-0.55 20.8-1.3 20.25-2.05 19.9-3L19.9-3Q19.55-4.15 19.55-5L19.55-5Q19.55-8.5 21.75-10.6 23.95-12.7 27.4-13.6L27.4-13.6Q31.95-14.5 32.15-15.25L32.15-15.25Q32.3-15.8 32.3-17.1L32.3-17.1Q32.3-19.75 29.6-19.75L29.6-19.75Q28.45-19.75 27.55-19.03 26.65-18.3 26.65-17.2L26.65-17.2 26.95-16Q26.85-15.15 25.15-15L25.15-15 24.6-14.95Q23.1-14.95 22.22-15.7 21.35-16.45 21.35-17.7L21.35-17.7Q21.35-18.5 21.87-19.48 22.4-20.45 23.2-21.05 24-21.65 25.67-22.13 27.35-22.6 28.9-22.6 30.45-22.6 31.3-22.5 32.15-22.4 33.62-22.03 35.1-21.65 36.07-20.6 37.05-19.55 37.12-18.38 37.2-17.2 37.2-15ZM55.75-17.2L55.5-13.4 55.7-11.65Q55.7-10.7 53.9-10.7L53.9-10.7Q50.25-10.7 50.25-13.45L50.25-13.45Q50.25-14.1 50.6-15.25 50.95-16.4 50.95-17.25 50.95-18.1 50.45-18.73 49.95-19.35 49-19.35 48.05-19.35 47.37-18.68 46.7-18 46.55-17.3L46.55-17.3 46.35-16.6Q46.05-15.05 46.05-11.43 46.05-7.8 46.15-5.73 46.25-3.65 46.35-2.88 46.45-2.1 46.45-1.95L46.45-1.95Q46.45-0.7 44.9 0.08 43.35 0.85 41.8 0.85 40.25 0.85 40.25 0.2L40.25 0.2 40.5-1.35Q41.2-5.7 41.2-12.7 41.2-19.7 40.7-22.2L40.7-22.2Q40.7-22.8 41.75-22.8L41.75-22.8Q44.45-22.8 45.35-20.95L45.35-20.95Q45.4-20.75 45.52-20.75 45.65-20.75 46.2-21.2L46.2-21.2Q47.85-22.55 50.1-22.55L50.1-22.55Q51.5-22.55 52.9-22L52.9-22Q55.75-20.85 55.75-17.2L55.75-17.2ZM73.54-15L73.54-15 73.44-8.6Q73.44-1.95 74.89-0.6L74.89-0.6Q75.09-0.4 75.09-0.15L75.09-0.15Q75.09 0.6 71.87 0.6 68.64 0.6 68.44-1.3L68.44-1.3Q68.39-1.75 68.39-3.15L68.39-3.15 68.59-11.15Q68.59-11.5 68.19-11.5L68.19-11.5Q65.79-11.5 63.69-10.15 61.59-8.8 61.59-6.7L61.59-6.7Q61.59-5.6 62.19-4.85 62.79-4.1 63.67-4.1 64.54-4.1 65.12-4.45 65.69-4.8 65.79-4.85L65.79-4.85Q66.64-4.75 66.64-3.08 66.64-1.4 65.09-0.38 63.54 0.65 61.84 0.65 60.14 0.65 58.92 0.05 57.69-0.55 57.14-1.3 56.59-2.05 56.24-3L56.24-3Q55.89-4.15 55.89-5L55.89-5Q55.89-8.5 58.09-10.6 60.29-12.7 63.74-13.6L63.74-13.6Q68.29-14.5 68.49-15.25L68.49-15.25Q68.64-15.8 68.64-17.1L68.64-17.1Q68.64-19.75 65.94-19.75L65.94-19.75Q64.79-19.75 63.89-19.03 62.99-18.3 62.99-17.2L62.99-17.2 63.29-16Q63.19-15.15 61.49-15L61.49-15 60.94-14.95Q59.44-14.95 58.57-15.7 57.69-16.45 57.69-17.7L57.69-17.7Q57.69-18.5 58.22-19.48 58.74-20.45 59.54-21.05 60.34-21.65 62.02-22.13 63.69-22.6 65.24-22.6 66.79-22.6 67.64-22.5 68.49-22.4 69.97-22.03 71.44-21.65 72.42-20.6 73.39-19.55 73.47-18.38 73.54-17.2 73.54-15ZM87.89 0.3L87.89 0.3Q88.59-3.2 88.59-9.53 88.59-15.85 88.54-17 88.49-18.15 87.84-18.85 87.19-19.55 86.72-19.65 86.24-19.75 85.39-19.75 84.54-19.75 83.74-18.98 82.94-18.2 82.79-17.4L82.79-17.4 82.59-16.6Q82.44-15.1 82.44-9.95 82.44-4.8 82.67-3.48 82.89-2.15 82.89-1.7 82.89-1.25 82.49-0.8L82.49-0.8Q80.79 1 77.69 1L77.69 1Q76.59 1 76.59 0.35L76.59 0.35Q77.59-5.65 77.59-14.95L77.59-14.95Q77.59-18.4 77.44-19.6L77.44-19.6 77.24-21.2Q77.19-21.75 77.04-22.4L77.04-22.4Q77.04-23 78.59-23L78.59-23Q80.89-23 81.64-21.3L81.64-21.3Q81.69-21.1 81.84-21.1 81.99-21.1 82.54-21.5L82.54-21.5Q84.19-22.8 86.99-22.8L86.99-22.8Q88.59-22.8 90.14-22.2 91.69-21.6 92.29-20.6L92.29-20.6Q92.34-20.5 92.44-20.5 92.54-20.5 92.74-20.7L92.74-20.7Q94.84-22.8 98.19-22.8L98.19-22.8Q102.64-22.8 104.29-19.6L104.29-19.6Q104.89-18.35 104.89-16.45 104.89-14.55 104.59-11.05 104.29-7.55 104.29-5.7 104.29-3.85 104.67-2.35 105.04-0.85 105.42-0.2 105.79 0.45 105.79 0.55L105.79 0.55Q105.79 1.2 104.39 1.2L104.39 1.2Q100.94 1.2 99.59-0.2 98.24-1.6 98.24-3.88 98.24-6.15 99.17-10.03 100.09-13.9 100.09-15.85L100.09-15.85Q100.09-19.8 96.89-19.8L96.89-19.8Q95.54-19.8 94.74-19 93.94-18.2 93.79-17.4L93.79-17.4 93.69-16.6Q93.49-14.3 93.49-11.05 93.49-7.8 93.59-5.98 93.69-4.15 93.79-3.13 93.89-2.1 93.89-1.9L93.89-1.9Q93.89-0.5 92.14 0.25 90.39 1 88.74 1L88.74 1Q87.89 1 87.89 0.3ZM117.54-17.25L117.54-17.25 116.39-16.95Q115.49-16.95 115.49-18.63 115.49-20.3 116.71-21.33 117.94-22.35 119.84-22.35L119.84-22.35Q120.89-22.35 122.09-21.73 123.29-21.1 124.09-20.18 124.89-19.25 125.51-17.28 126.14-15.3 126.14-12.65L126.14-12.65Q126.14-6.55 122.86-2.75 119.59 1.05 113.39 1.05L113.39 1.05Q111.59 1.05 109.84 0.7L109.84 0.7 109.34 0.6Q108.69 0.4 108.59-0.1L108.59-0.1Q108.44-1.15 108.44-5.05L108.44-5.05 108.74-21.25Q108.74-25 108.54-27L108.54-27 108.44-27.7Q108.34-29.1 107.86-30.1 107.39-31.1 106.94-31.4L106.94-31.4 106.54-31.65Q106.19-31.85 106.19-32.1L106.19-32.1Q106.19-32.85 108.69-33.88 111.19-34.9 112.34-34.9 113.49-34.9 113.54-34.3L113.54-34.3Q113.89-31.25 113.89-25.6L113.89-25.6 113.64-13.6Q113.64-5.75 114.09-2.75L114.09-2.75Q114.14-2.05 115.66-2.05 117.19-2.05 118.29-2.9 119.39-3.75 119.94-5.15L119.94-5.15Q120.94-7.7 120.94-10.8L120.94-10.8Q120.94-12.25 120.54-13.95L120.54-13.95Q119.84-17.25 117.54-17.25ZM133.03-26.75L133.03-26.75 131.84-26.8Q130.49-26.8 130.09-26.15L130.09-26.15Q129.99-26 129.84-26L129.84-26Q129.19-26 129.19-28.23 129.19-30.45 129.86-31.05 130.53-31.65 132.21-31.65 133.88-31.65 134.49-31.08 135.09-30.5 135.09-29.15 135.09-27.8 134.63-27.28 134.19-26.75 133.03-26.75ZM129.03-1.5L129.03-1.5 129.59-13.15Q129.59-17.3 128.63-18.8L128.63-18.8Q128.34-19.3 127.94-19.55L127.94-19.55Q127.64-19.65 127.64-19.95L127.64-19.95Q127.64-20.85 130.19-21.7 132.74-22.55 133.91-22.55 135.09-22.55 135.13-21.95L135.13-21.95Q135.13-20.95 134.86-16.28 134.59-11.6 134.59-6.45 134.59-1.3 135.19-0.05L135.19-0.05Q135.34 0.2 135.34 0.45L135.34 0.45Q135.34 1.1 133.44 1.1 131.53 1.1 129.53 0.1L129.53 0.1Q129.03-0.15 129.03-1.5ZM153.58-6.85L153.58-6.85Q153.58-4.7 152.76-3.1 151.93-1.5 150.88-0.75 149.83 0 148.38 0.45L148.38 0.45Q146.48 1.05 144.93 1.05L144.93 1.05Q141.68 1.05 139.53-0.23 137.38-1.5 137.38-4.3L137.38-4.3Q137.38-5.95 138.28-7L138.28-7Q139.68-8.55 141.63-8.55L141.63-8.55Q142.23-8.55 142.23-8L142.23-8Q142.23-7.95 142.01-7.23 141.78-6.5 141.78-5.4 141.78-4.3 142.66-3.45 143.53-2.6 144.78-2.6 146.03-2.6 146.78-3.03 147.53-3.45 147.83-4.1L147.83-4.1Q148.28-5 148.28-5.8L148.28-5.8Q148.28-7.25 146.83-8.3 145.38-9.35 143.63-9.95 141.88-10.55 140.43-11.95 138.98-13.35 138.98-15.45L138.98-15.45Q138.98-19.05 141.26-20.85 143.53-22.65 147.43-22.65L147.43-22.65Q149.13-22.65 151.01-22.18 152.88-21.7 152.88-20.58 152.88-19.45 152.51-18.5 152.13-17.55 151.58-17.55L151.58-17.55Q151.28-17.55 151.18-17.78 151.08-18 150.83-18.3 150.58-18.6 149.63-19.07 148.68-19.55 148.01-19.55 147.33-19.55 147.11-19.53 146.88-19.5 146.33-19.38 145.78-19.25 145.33-19L145.33-19Q144.18-18.35 144.18-17.1L144.18-17.1Q144.18-16.3 144.53-15.93 144.88-15.55 145.08-15.35 145.28-15.15 145.78-14.88 146.28-14.6 146.48-14.5 146.68-14.4 147.38-14.08 148.08-13.75 148.28-13.65L148.28-13.65Q153.58-11.15 153.58-6.85ZM160.48-18.85L160.48-18.85Q159.18-18.8 158.6-18.78 158.03-18.75 158.03-19.05 158.03-19.35 158.33-19.65L158.33-19.65Q161.53-22.6 169.13-22.6L169.13-22.6Q171.73-22.6 173.23-22.15L173.23-22.15 173.73-22Q174.33-21.75 174.33-21.45L174.33-21.45Q174.33-21.2 173.98-21.05L173.98-21.05Q172.63-20.65 171.38-19.78 170.13-18.9 170.13-18.55L170.13-18.55 170.43-18.2Q172.03-17.3 172.9-15.35 173.78-13.4 173.88-11.9L173.88-11.9 173.98-10.35Q173.98-5.4 171.23-2.2 168.48 1 163.73 1L163.73 1Q161.33 1 159.58 0.15 157.83-0.7 157-1.78 156.18-2.85 155.68-4.2L155.68-4.2Q155.08-6.05 155.08-8.03 155.08-10 155.75-12 156.43-14 157.3-14.95 158.18-15.9 159.28-16.5L159.28-16.5Q160.68-17.25 161.53-17.25 162.38-17.25 162.38-16.9L162.38-16.9 162.08-16.4Q160.98-15.1 160.5-13 160.03-10.9 160.03-9.28 160.03-7.65 160.43-6.05 160.83-4.45 161.33-3.68 161.83-2.9 162.48-2.5L162.48-2.5Q163.43-1.9 164.48-1.9 165.53-1.9 166.53-2.73 167.53-3.55 167.98-4.9L167.98-4.9Q168.88-7.4 168.88-10.05L168.88-10.05Q168.88-14.25 166.75-16.55 164.63-18.85 160.48-18.85ZM194.28-22.25L194.28-22.25Q193.38-16.85 193.38-8.5L193.38-8.5Q193.38-2.35 193.88-0.4L193.88-0.4 194.08 0.25Q194.08 0.9 192.98 0.9L192.98 0.9Q189.13 0.9 188.58-1.25L188.58-1.25Q188.53-1.5 188.35-1.5 188.18-1.5 188.03-1.3L188.03-1.3Q186.48 0.75 183.23 0.75L183.23 0.75Q181.43 0.75 179.48-0.15L179.48-0.15Q178.28-0.7 177.53-2.08 176.78-3.45 176.78-5.45L176.78-5.45 177.53-16.4Q177.53-19.85 176.83-21.3L176.83-21.3Q176.58-21.85 176.58-22L176.58-22Q176.58-22.3 176.83-22.4L176.83-22.4Q177.63-22.65 178.88-22.65L178.88-22.65Q183.73-22.65 183.73-18.65L183.73-18.65Q183.73-17.4 182.7-12.95 181.68-8.5 181.68-6.63 181.68-4.75 182.5-3.75 183.33-2.75 184.8-2.75 186.28-2.75 187.13-3.8 187.98-4.85 188.13-5.9L188.13-5.9 188.28-6.95Q188.48-8.7 188.48-13.1 188.48-17.5 188.2-18.68 187.93-19.85 187.93-20.15L187.93-20.15Q187.93-21.4 189.93-22.13 191.93-22.85 193.53-22.85L193.53-22.85Q194.28-22.85 194.28-22.25Z" opacity="1" transform="matrix(1,0,0,1,0,0)" fill="black" class="wordmark-text-0" id="SvgjsPath5344" stroke-width="7" stroke="black" stroke-linejoin="round"></path></svg></g></svg></g></svg></g></svg></g></svg></g></svg></g></svg></g></mask><g transform="matrix(1,0,0,1,39.55199999999999,89.51469732566858)"><svg viewBox="0 0 316.416 68.17060534866283" height="68.17060534866283" width="316.416"><g><svg viewBox="0 0 316.416 68.17060534866283" height="68.17060534866283" width="316.416"><g><svg viewBox="0 0 316.416 68.17060534866283" height="68.17060534866283" width="316.416"><g><svg viewBox="0 0 316.416 68.17060534866283" height="68.17060534866283" width="316.416"><g id="textblocktransform"><svg viewBox="0 0 316.416 68.17060534866283" height="68.17060534866283" width="316.416" id="textblock"><g><svg viewBox="0 0 316.416 68.17060534866283" height="68.17060534866283" width="316.416"><g transform="matrix(1,0,0,1,0,0)"><svg width="316.416" viewBox="-2.75 -38.9 201.03 44.099999999999994" height="68.17060534866283" data-palette-color="#fbf3d5"><path d="M17.85-5.75L17.85-5.75Q17.85-2.9 15.58-1.03 13.3 0.85 10.15 0.85L10.15 0.85Q5.55 0.85 3.4-1.93 1.25-4.7 1.25-9.45L1.25-9.45Q1.25-14.5 3.5-18.4L3.5-18.4Q4.6-20.4 6.65-21.55 8.7-22.7 11.45-22.7L11.45-22.7Q15.6-22.7 17.3-19.9L17.3-19.9Q18-18.75 18-17.2L18-17.2Q18-14.8 16-13.6L16-13.6Q15.2-13.15 14.53-13.15 13.85-13.15 13.43-13.23 13-13.3 12.3-13.9 11.6-14.5 11.6-15.55L11.6-15.55Q11.65-16.1 12.45-16.45L12.45-16.45Q13.2-16.9 13.2-18.05L13.2-18.05Q13.2-20 10.8-20L10.8-20Q10.2-20 9.38-19.48 8.55-18.95 8-18.13 7.45-17.3 6.98-15.53 6.5-13.75 6.5-12.13 6.5-10.5 6.63-9.68 6.75-8.85 7.18-7.43 7.6-6 8.78-5.1 9.95-4.2 11.7-4.2L11.7-4.2Q13.8-4.2 15.4-5.95L15.4-5.95Q16.05-6.65 16.45-7.65L16.45-7.65Q16.65-8.05 16.95-8.05L16.95-8.05Q17.4-8.05 17.63-7.23 17.85-6.4 17.85-5.75ZM37.2-15L37.2-15 37.1-8.6Q37.1-1.95 38.55-0.6L38.55-0.6Q38.75-0.4 38.75-0.15L38.75-0.15Q38.75 0.6 35.52 0.6 32.3 0.6 32.1-1.3L32.1-1.3Q32.05-1.75 32.05-3.15L32.05-3.15 32.25-11.15Q32.25-11.5 31.85-11.5L31.85-11.5Q29.45-11.5 27.35-10.15 25.25-8.8 25.25-6.7L25.25-6.7Q25.25-5.6 25.85-4.85 26.45-4.1 27.32-4.1 28.2-4.1 28.77-4.45 29.35-4.8 29.45-4.85L29.45-4.85Q30.3-4.75 30.3-3.08 30.3-1.4 28.75-0.38 27.2 0.65 25.5 0.65 23.8 0.65 22.57 0.05 21.35-0.55 20.8-1.3 20.25-2.05 19.9-3L19.9-3Q19.55-4.15 19.55-5L19.55-5Q19.55-8.5 21.75-10.6 23.95-12.7 27.4-13.6L27.4-13.6Q31.95-14.5 32.15-15.25L32.15-15.25Q32.3-15.8 32.3-17.1L32.3-17.1Q32.3-19.75 29.6-19.75L29.6-19.75Q28.45-19.75 27.55-19.03 26.65-18.3 26.65-17.2L26.65-17.2 26.95-16Q26.85-15.15 25.15-15L25.15-15 24.6-14.95Q23.1-14.95 22.22-15.7 21.35-16.45 21.35-17.7L21.35-17.7Q21.35-18.5 21.87-19.48 22.4-20.45 23.2-21.05 24-21.65 25.67-22.13 27.35-22.6 28.9-22.6 30.45-22.6 31.3-22.5 32.15-22.4 33.62-22.03 35.1-21.65 36.07-20.6 37.05-19.55 37.12-18.38 37.2-17.2 37.2-15ZM55.75-17.2L55.5-13.4 55.7-11.65Q55.7-10.7 53.9-10.7L53.9-10.7Q50.25-10.7 50.25-13.45L50.25-13.45Q50.25-14.1 50.6-15.25 50.95-16.4 50.95-17.25 50.95-18.1 50.45-18.73 49.95-19.35 49-19.35 48.05-19.35 47.37-18.68 46.7-18 46.55-17.3L46.55-17.3 46.35-16.6Q46.05-15.05 46.05-11.43 46.05-7.8 46.15-5.73 46.25-3.65 46.35-2.88 46.45-2.1 46.45-1.95L46.45-1.95Q46.45-0.7 44.9 0.08 43.35 0.85 41.8 0.85 40.25 0.85 40.25 0.2L40.25 0.2 40.5-1.35Q41.2-5.7 41.2-12.7 41.2-19.7 40.7-22.2L40.7-22.2Q40.7-22.8 41.75-22.8L41.75-22.8Q44.45-22.8 45.35-20.95L45.35-20.95Q45.4-20.75 45.52-20.75 45.65-20.75 46.2-21.2L46.2-21.2Q47.85-22.55 50.1-22.55L50.1-22.55Q51.5-22.55 52.9-22L52.9-22Q55.75-20.85 55.75-17.2L55.75-17.2ZM73.54-15L73.54-15 73.44-8.6Q73.44-1.95 74.89-0.6L74.89-0.6Q75.09-0.4 75.09-0.15L75.09-0.15Q75.09 0.6 71.87 0.6 68.64 0.6 68.44-1.3L68.44-1.3Q68.39-1.75 68.39-3.15L68.39-3.15 68.59-11.15Q68.59-11.5 68.19-11.5L68.19-11.5Q65.79-11.5 63.69-10.15 61.59-8.8 61.59-6.7L61.59-6.7Q61.59-5.6 62.19-4.85 62.79-4.1 63.67-4.1 64.54-4.1 65.12-4.45 65.69-4.8 65.79-4.85L65.79-4.85Q66.64-4.75 66.64-3.08 66.64-1.4 65.09-0.38 63.54 0.65 61.84 0.65 60.14 0.65 58.92 0.05 57.69-0.55 57.14-1.3 56.59-2.05 56.24-3L56.24-3Q55.89-4.15 55.89-5L55.89-5Q55.89-8.5 58.09-10.6 60.29-12.7 63.74-13.6L63.74-13.6Q68.29-14.5 68.49-15.25L68.49-15.25Q68.64-15.8 68.64-17.1L68.64-17.1Q68.64-19.75 65.94-19.75L65.94-19.75Q64.79-19.75 63.89-19.03 62.99-18.3 62.99-17.2L62.99-17.2 63.29-16Q63.19-15.15 61.49-15L61.49-15 60.94-14.95Q59.44-14.95 58.57-15.7 57.69-16.45 57.69-17.7L57.69-17.7Q57.69-18.5 58.22-19.48 58.74-20.45 59.54-21.05 60.34-21.65 62.02-22.13 63.69-22.6 65.24-22.6 66.79-22.6 67.64-22.5 68.49-22.4 69.97-22.03 71.44-21.65 72.42-20.6 73.39-19.55 73.47-18.38 73.54-17.2 73.54-15ZM87.89 0.3L87.89 0.3Q88.59-3.2 88.59-9.53 88.59-15.85 88.54-17 88.49-18.15 87.84-18.85 87.19-19.55 86.72-19.65 86.24-19.75 85.39-19.75 84.54-19.75 83.74-18.98 82.94-18.2 82.79-17.4L82.79-17.4 82.59-16.6Q82.44-15.1 82.44-9.95 82.44-4.8 82.67-3.48 82.89-2.15 82.89-1.7 82.89-1.25 82.49-0.8L82.49-0.8Q80.79 1 77.69 1L77.69 1Q76.59 1 76.59 0.35L76.59 0.35Q77.59-5.65 77.59-14.95L77.59-14.95Q77.59-18.4 77.44-19.6L77.44-19.6 77.24-21.2Q77.19-21.75 77.04-22.4L77.04-22.4Q77.04-23 78.59-23L78.59-23Q80.89-23 81.64-21.3L81.64-21.3Q81.69-21.1 81.84-21.1 81.99-21.1 82.54-21.5L82.54-21.5Q84.19-22.8 86.99-22.8L86.99-22.8Q88.59-22.8 90.14-22.2 91.69-21.6 92.29-20.6L92.29-20.6Q92.34-20.5 92.44-20.5 92.54-20.5 92.74-20.7L92.74-20.7Q94.84-22.8 98.19-22.8L98.19-22.8Q102.64-22.8 104.29-19.6L104.29-19.6Q104.89-18.35 104.89-16.45 104.89-14.55 104.59-11.05 104.29-7.55 104.29-5.7 104.29-3.85 104.67-2.35 105.04-0.85 105.42-0.2 105.79 0.45 105.79 0.55L105.79 0.55Q105.79 1.2 104.39 1.2L104.39 1.2Q100.94 1.2 99.59-0.2 98.24-1.6 98.24-3.88 98.24-6.15 99.17-10.03 100.09-13.9 100.09-15.85L100.09-15.85Q100.09-19.8 96.89-19.8L96.89-19.8Q95.54-19.8 94.74-19 93.94-18.2 93.79-17.4L93.79-17.4 93.69-16.6Q93.49-14.3 93.49-11.05 93.49-7.8 93.59-5.98 93.69-4.15 93.79-3.13 93.89-2.1 93.89-1.9L93.89-1.9Q93.89-0.5 92.14 0.25 90.39 1 88.74 1L88.74 1Q87.89 1 87.89 0.3ZM117.54-17.25L117.54-17.25 116.39-16.95Q115.49-16.95 115.49-18.63 115.49-20.3 116.71-21.33 117.94-22.35 119.84-22.35L119.84-22.35Q120.89-22.35 122.09-21.73 123.29-21.1 124.09-20.18 124.89-19.25 125.51-17.28 126.14-15.3 126.14-12.65L126.14-12.65Q126.14-6.55 122.86-2.75 119.59 1.05 113.39 1.05L113.39 1.05Q111.59 1.05 109.84 0.7L109.84 0.7 109.34 0.6Q108.69 0.4 108.59-0.1L108.59-0.1Q108.44-1.15 108.44-5.05L108.44-5.05 108.74-21.25Q108.74-25 108.54-27L108.54-27 108.44-27.7Q108.34-29.1 107.86-30.1 107.39-31.1 106.94-31.4L106.94-31.4 106.54-31.65Q106.19-31.85 106.19-32.1L106.19-32.1Q106.19-32.85 108.69-33.88 111.19-34.9 112.34-34.9 113.49-34.9 113.54-34.3L113.54-34.3Q113.89-31.25 113.89-25.6L113.89-25.6 113.64-13.6Q113.64-5.75 114.09-2.75L114.09-2.75Q114.14-2.05 115.66-2.05 117.19-2.05 118.29-2.9 119.39-3.75 119.94-5.15L119.94-5.15Q120.94-7.7 120.94-10.8L120.94-10.8Q120.94-12.25 120.54-13.95L120.54-13.95Q119.84-17.25 117.54-17.25ZM133.03-26.75L133.03-26.75 131.84-26.8Q130.49-26.8 130.09-26.15L130.09-26.15Q129.99-26 129.84-26L129.84-26Q129.19-26 129.19-28.23 129.19-30.45 129.86-31.05 130.53-31.65 132.21-31.65 133.88-31.65 134.49-31.08 135.09-30.5 135.09-29.15 135.09-27.8 134.63-27.28 134.19-26.75 133.03-26.75ZM129.03-1.5L129.03-1.5 129.59-13.15Q129.59-17.3 128.63-18.8L128.63-18.8Q128.34-19.3 127.94-19.55L127.94-19.55Q127.64-19.65 127.64-19.95L127.64-19.95Q127.64-20.85 130.19-21.7 132.74-22.55 133.91-22.55 135.09-22.55 135.13-21.95L135.13-21.95Q135.13-20.95 134.86-16.28 134.59-11.6 134.59-6.45 134.59-1.3 135.19-0.05L135.19-0.05Q135.34 0.2 135.34 0.45L135.34 0.45Q135.34 1.1 133.44 1.1 131.53 1.1 129.53 0.1L129.53 0.1Q129.03-0.15 129.03-1.5ZM153.58-6.85L153.58-6.85Q153.58-4.7 152.76-3.1 151.93-1.5 150.88-0.75 149.83 0 148.38 0.45L148.38 0.45Q146.48 1.05 144.93 1.05L144.93 1.05Q141.68 1.05 139.53-0.23 137.38-1.5 137.38-4.3L137.38-4.3Q137.38-5.95 138.28-7L138.28-7Q139.68-8.55 141.63-8.55L141.63-8.55Q142.23-8.55 142.23-8L142.23-8Q142.23-7.95 142.01-7.23 141.78-6.5 141.78-5.4 141.78-4.3 142.66-3.45 143.53-2.6 144.78-2.6 146.03-2.6 146.78-3.03 147.53-3.45 147.83-4.1L147.83-4.1Q148.28-5 148.28-5.8L148.28-5.8Q148.28-7.25 146.83-8.3 145.38-9.35 143.63-9.95 141.88-10.55 140.43-11.95 138.98-13.35 138.98-15.45L138.98-15.45Q138.98-19.05 141.26-20.85 143.53-22.65 147.43-22.65L147.43-22.65Q149.13-22.65 151.01-22.18 152.88-21.7 152.88-20.58 152.88-19.45 152.51-18.5 152.13-17.55 151.58-17.55L151.58-17.55Q151.28-17.55 151.18-17.78 151.08-18 150.83-18.3 150.58-18.6 149.63-19.07 148.68-19.55 148.01-19.55 147.33-19.55 147.11-19.53 146.88-19.5 146.33-19.38 145.78-19.25 145.33-19L145.33-19Q144.18-18.35 144.18-17.1L144.18-17.1Q144.18-16.3 144.53-15.93 144.88-15.55 145.08-15.35 145.28-15.15 145.78-14.88 146.28-14.6 146.48-14.5 146.68-14.4 147.38-14.08 148.08-13.75 148.28-13.65L148.28-13.65Q153.58-11.15 153.58-6.85ZM160.48-18.85L160.48-18.85Q159.18-18.8 158.6-18.78 158.03-18.75 158.03-19.05 158.03-19.35 158.33-19.65L158.33-19.65Q161.53-22.6 169.13-22.6L169.13-22.6Q171.73-22.6 173.23-22.15L173.23-22.15 173.73-22Q174.33-21.75 174.33-21.45L174.33-21.45Q174.33-21.2 173.98-21.05L173.98-21.05Q172.63-20.65 171.38-19.78 170.13-18.9 170.13-18.55L170.13-18.55 170.43-18.2Q172.03-17.3 172.9-15.35 173.78-13.4 173.88-11.9L173.88-11.9 173.98-10.35Q173.98-5.4 171.23-2.2 168.48 1 163.73 1L163.73 1Q161.33 1 159.58 0.15 157.83-0.7 157-1.78 156.18-2.85 155.68-4.2L155.68-4.2Q155.08-6.05 155.08-8.03 155.08-10 155.75-12 156.43-14 157.3-14.95 158.18-15.9 159.28-16.5L159.28-16.5Q160.68-17.25 161.53-17.25 162.38-17.25 162.38-16.9L162.38-16.9 162.08-16.4Q160.98-15.1 160.5-13 160.03-10.9 160.03-9.28 160.03-7.65 160.43-6.05 160.83-4.45 161.33-3.68 161.83-2.9 162.48-2.5L162.48-2.5Q163.43-1.9 164.48-1.9 165.53-1.9 166.53-2.73 167.53-3.55 167.98-4.9L167.98-4.9Q168.88-7.4 168.88-10.05L168.88-10.05Q168.88-14.25 166.75-16.55 164.63-18.85 160.48-18.85ZM194.28-22.25L194.28-22.25Q193.38-16.85 193.38-8.5L193.38-8.5Q193.38-2.35 193.88-0.4L193.88-0.4 194.08 0.25Q194.08 0.9 192.98 0.9L192.98 0.9Q189.13 0.9 188.58-1.25L188.58-1.25Q188.53-1.5 188.35-1.5 188.18-1.5 188.03-1.3L188.03-1.3Q186.48 0.75 183.23 0.75L183.23 0.75Q181.43 0.75 179.48-0.15L179.48-0.15Q178.28-0.7 177.53-2.08 176.78-3.45 176.78-5.45L176.78-5.45 177.53-16.4Q177.53-19.85 176.83-21.3L176.83-21.3Q176.58-21.85 176.58-22L176.58-22Q176.58-22.3 176.83-22.4L176.83-22.4Q177.63-22.65 178.88-22.65L178.88-22.65Q183.73-22.65 183.73-18.65L183.73-18.65Q183.73-17.4 182.7-12.95 181.68-8.5 181.68-6.63 181.68-4.75 182.5-3.75 183.33-2.75 184.8-2.75 186.28-2.75 187.13-3.8 187.98-4.85 188.13-5.9L188.13-5.9 188.28-6.95Q188.48-8.7 188.48-13.1 188.48-17.5 188.2-18.68 187.93-19.85 187.93-20.15L187.93-20.15Q187.93-21.4 189.93-22.13 191.93-22.85 193.53-22.85L193.53-22.85Q194.28-22.85 194.28-22.25Z" opacity="1" transform="matrix(1,0,0,1,0,0)" fill="#fbf3d5" class="wordmark-text-0" data-fill-palette-color="primary" id="text-0"></path></svg></g></svg></g></svg></g></svg></g></svg></g></svg></g></svg></g><g mask="url(#9dec07e5-73b8-406f-8327-8b9260c383bc)"><g transform="matrix(3.129142517875219, 0, 0, 3.129142517875219, 113.12053434741809, 1)"><svg xmlns="http://www.w3.org/2000/svg" xmlns:xlink="http://www.w3.org/1999/xlink" version="1.1" x="0" y="0" viewBox="25.000032266310633 6.999541297082004 54.09754600123143 78.36012536958467" enable-background="new 0 0 100 100" xml:space="preserve" height="78.36012536958467" width="54.09754600123143" class="icon-none" data-fill-palette-color="accent" id="none"><g fill="#d6dac8" data-fill-palette-color="accent"><path fill="none" d="M35.382 11.271A0.643 0.643 0 1 0 35.383 9.984 0.643 0.643 0 0 0 35.382 11.27"></path><path fill="none" d="M25.723 22.875C25.739 22.916 25.753 22.956 25.77 22.996 26.795 22.762 28.826 22.433 29.985 23.15L29.992 23.075C29.616 22.659 28.38 21.682 25.723 22.875"></path><path fill="none" d="M35.962 9.826C35.904 9.826 35.849 9.829 35.793 9.834A1.197 1.197 0 1 1 34.267 11.238 1.724 1.724 0 1 0 35.962 9.826"></path><path fill="none" d="M52.178 30.24S53.006 40.078 68.658 42.747C68.658 42.747 74.037 43.296 74.744 42.119 74.744 42.119 62.936 25.326 52.178 30.24"></path><path d="M33.658 17.533C32.69 14.335 28.942 13.536 27.831 13.368 27.78 13.478 27.755 13.539 27.755 13.539 24.47 16.484 24.587 19.944 25.723 22.875 28.38 21.682 29.617 22.659 29.992 23.075 30.089 21.67 30.642 20.849 30.642 20.849 31.421 19.273 32.501 18.226 33.658 17.533" fill="#d6dac8" data-fill-palette-color="accent"></path><path d="M25.77 22.996C27.2 26.578 30.122 29.339 30.122 29.339 31.369 28.632 30.122 24.86 30.122 24.86A6.6 6.6 0 0 1 29.985 23.151C28.825 22.433 26.795 22.762 25.77 22.996" fill="#d6dac8" data-fill-palette-color="accent"></path><path d="M66.758 31.107C55.475 19.317 41.16 36.177 41.16 36.177 39.81 35.556 38.152 34.456 37.479 33.083 34.955 27.927 42.104 23.552 43.376 19.2 44.777 14.404 43.058 9.887 38.666 7.761 32.335 4.699 28.59 11.761 27.879 13.264 33.475 12.365 33.797 16.249 33.763 17.47 36.809 15.711 40.341 16.368 40.342 16.368 41.341 16.554 41.064 18.329 40.873 18.901 40.439 20.204 39.552 21.402 38.723 22.477 37.829 23.636 36.748 24.619 35.827 25.75 34.768 27.051 34.122 28.56 33.545 30.119 33.079 31.376 32.828 32.719 33.073 34.052 33.742 37.694 37.48 40.235 40.797 41.239 42.296 41.694 43.86 41.944 45.418 42.091 45.891 42.136 46.827 41.995 47.266 42.19 48.48 42.731 49.673 43.166 50.834 43.51 50.922 48.544 51.48 81.822 50.822 82.313 50.822 82.313 43.478 83.286 42.152 84.613 42.152 84.613 39.234 86.293 53.913 84.613 53.913 84.613 51.061 48.727 52.331 43.913 55.981 44.79 59.216 44.822 61.571 44.625 64.407 46.438 69.104 49.586 68.856 50.391 68.856 50.391 52.762 57.377 53.294 60.383 53.294 60.383 54.091 70.641 56.124 70.906 56.124 70.906 58.245 70.552 57.272 67.988 57.272 67.988 54.708 61.002 55.504 61.091 55.504 61.091 59.674 56.317 68.865 53.044 68.865 53.044 71.951 51.718 72.039 50.215 72.039 50.215 68.002 46.434 64.182 44.274 65.053 44.108 65.539 43.96 65.539 43.96 72.967 46.672 78.271 45.493 78.271 45.493 82.873 45.492 66.758 31.107 66.758 31.107M34.923 10.176A0.65 0.65 0 0 1 35.382 9.985 0.644 0.644 0 1 1 34.923 10.176M35.962 13.274A1.724 1.724 0 0 1 34.266 11.238 1.195 1.195 0 0 0 36.628 10.976C36.628 10.441 36.277 9.988 35.792 9.834A1.724 1.724 0 1 1 35.962 13.274M68.658 42.747C53.006 40.078 52.178 30.24 52.178 30.24 62.936 25.326 74.744 42.119 74.744 42.119 74.037 43.296 68.658 42.747 68.658 42.747" fill="#d6dac8" data-fill-palette-color="accent"></path><path fill="#d6dac8" d="M25.139 23.159S25.384 23.084 25.77 22.996C25.753 22.956 25.739 22.916 25.723 22.875 25.534 22.959 25.342 23.053 25.139 23.159" data-fill-palette-color="accent"></path><path fill="#d6dac8" d="M30.12 23.24S30.079 23.174 29.991 23.075L29.984 23.15C30.031 23.179 30.076 23.209 30.12 23.24" data-fill-palette-color="accent"></path></g></svg></g></g></svg></g><defs></defs></svg><rect width="395.52" height="247.2" fill="none" stroke="none" visibility="hidden"></rect></g></svg></g></svg>